<?xml version="1.0" standalone="no"?>
<!DOCTYPE svg PUBLIC "-//W3C//DTD SVG 20010904//EN"
 "http://www.w3.org/TR/2001/REC-SVG-20010904/DTD/svg10.dtd">
<svg version="1.0" xmlns="http://www.w3.org/2000/svg"
 width="500.000000pt" height="500.000000pt" viewBox="0 0 500.000000 500.000000"
 preserveAspectRatio="xMidYMid meet">
<metadata>
Created by potrace 1.14, written by Peter Selinger 2001-2017
</metadata>
<g transform="translate(0.000000,500.000000) scale(0.100000,-0.100000)"
fill="#000000" stroke="none">
<path d="M2328 4995 c-2 -1 -37 -5 -78 -9 -41 -3 -86 -8 -100 -11 -14 -2 -41
-6 -60 -9 -170 -22 -478 -119 -668 -212 -756 -367 -1270 -1060 -1398 -1884
-26 -163 -25 -644 1 -722 2 -7 6 -31 9 -53 30 -230 144 -564 273 -798 121
-218 249 -386 438 -574 406 -402 879 -629 1485 -710 69 -9 411 -10 506 -1 252
24 466 77 720 179 l122 49 73 -15 c41 -8 126 -24 189 -35 63 -12 160 -30 215
-41 55 -10 116 -21 135 -24 19 -4 53 -10 75 -15 22 -5 56 -12 75 -15 19 -3 42
-8 50 -10 8 -2 35 -7 60 -10 25 -4 85 -15 135 -24 153 -31 242 -9 314 77 60
72 75 142 52 252 -6 30 -13 64 -15 75 -2 11 -13 65 -25 120 -11 55 -22 111
-25 125 -3 14 -14 70 -26 125 -11 55 -23 113 -26 129 -3 16 -18 91 -34 165
-31 147 -37 177 -46 231 -3 19 -6 37 -7 40 -1 3 20 57 47 120 99 233 146 407
192 710 9 66 12 428 3 496 -4 33 -10 86 -14 119 -20 192 -96 463 -187 669
-168 384 -451 744 -778 988 -280 209 -676 395 -943 442 -15 3 -35 7 -45 10
-30 9 -177 34 -251 42 -50 6 -438 14 -443 9z m412 -270 c117 -14 142 -19 244
-41 954 -210 1670 -1036 1743 -2013 12 -159 6 -385 -12 -486 -3 -16 -10 -55
-16 -85 -6 -30 -13 -68 -15 -85 -11 -68 -76 -267 -120 -370 -77 -181 -86 -214
-80 -270 5 -50 12 -84 80 -415 95 -462 134 -655 131 -658 -2 -2 -193 32 -360
64 -11 2 -45 8 -75 14 -30 6 -66 12 -80 15 -14 3 -52 10 -85 16 -73 13 -69 13
-235 44 -74 14 -151 29 -170 33 -19 4 -73 7 -120 6 -74 0 -94 -5 -153 -33
-162 -76 -362 -136 -572 -170 -224 -38 -552 -33 -750 9 -22 5 -56 12 -75 15
-122 21 -374 111 -531 190 -329 165 -632 432 -840 740 -154 228 -285 534 -335
780 -2 11 -6 31 -9 45 -3 14 -7 43 -11 65 -3 22 -8 54 -11 70 -25 144 -24 480
2 625 1 8 6 35 10 60 12 83 67 284 105 385 118 317 284 572 534 820 276 273
618 468 997 569 83 22 121 29 244 50 17 3 68 8 115 12 47 4 86 8 88 9 5 5 314
-4 362 -10z"/>
<path d="M1117 2889 c-115 -18 -236 -110 -291 -224 -25 -50 -30 -75 -32 -146
-3 -95 7 -141 48 -211 75 -130 191 -199 338 -200 125 -1 233 51 311 148 64 80
88 155 84 260 -10 241 -217 409 -458 373z m133 -275 c45 -27 65 -72 61 -142
-1 -12 -16 -38 -34 -58 -98 -108 -269 4 -212 139 28 67 122 98 185 61z"/>
<path d="M2478 2895 c-2 -1 -24 -5 -51 -8 -102 -12 -225 -104 -277 -208 -112
-221 0 -481 240 -557 54 -17 102 -20 172 -9 190 28 329 192 329 387 0 176
-110 324 -281 378 -33 11 -126 23 -132 17z m90 -285 c36 -22 62 -72 62 -117 0
-38 -33 -89 -69 -108 -119 -61 -242 76 -168 186 41 61 113 77 175 39z"/>
<path d="M3788 2895 c-2 -2 -23 -5 -47 -9 -135 -18 -269 -141 -306 -282 -48
-179 42 -377 209 -458 200 -97 432 -12 530 194 28 59 31 74 31 160 0 87 -3
101 -34 163 -18 37 -46 83 -62 102 -36 40 -110 89 -165 109 -36 12 -149 28
-156 21z m91 -279 c60 -32 83 -121 46 -183 -58 -99 -209 -72 -235 42 -24 106
91 191 189 141z"/>
</g>
</svg>
